<svg width="200" height="196" viewBox="0 0 200 196" fill="none" xmlns="http://www.w3.org/2000/svg">
<path d="M66.8952 157.016C66.8952 157.823 65.9677 158.468 64.7984 158.468C63.4677 158.589 62.5403 157.944 62.5403 157.016C62.5403 156.21 63.4677 155.565 64.6371 155.565C65.8468 155.444 66.8952 156.089 66.8952 157.016ZM54.3548 155.202C54.0726 156.008 54.879 156.935 56.0887 157.177C57.1371 157.581 58.3468 157.177 58.5887 156.371C58.8306 155.565 58.0645 154.637 56.8548 154.274C55.8065 153.992 54.6371 154.395 54.3548 155.202ZM72.1774 154.516C71.0081 154.798 70.2016 155.565 70.3226 156.492C70.4435 157.298 71.4919 157.823 72.7016 157.54C73.871 157.258 74.6774 156.492 74.5564 155.685C74.4355 154.919 73.3468 154.395 72.1774 154.516ZM98.7097 0C42.7823 0 0 42.4597 0 98.3871C0 143.105 28.1452 181.371 68.3468 194.839C73.5081 195.766 75.3226 192.581 75.3226 189.96C75.3226 187.46 75.2016 173.669 75.2016 165.202C75.2016 165.202 46.9758 171.25 41.0484 153.185C41.0484 153.185 36.4516 141.452 29.8387 138.427C29.8387 138.427 20.6048 132.097 30.4839 132.218C30.4839 132.218 40.5242 133.024 46.0484 142.621C54.879 158.185 69.6774 153.71 75.4436 151.048C76.371 144.597 78.9919 140.121 81.8952 137.46C59.3548 134.96 36.6129 131.694 36.6129 92.9032C36.6129 81.8145 39.6774 76.25 46.129 69.1532C45.0806 66.5323 41.6532 55.7258 47.1774 41.7742C55.6048 39.1532 75 52.6613 75 52.6613C83.0645 50.4032 91.7339 49.2339 100.323 49.2339C108.911 49.2339 117.581 50.4032 125.645 52.6613C125.645 52.6613 145.04 39.1129 153.468 41.7742C158.992 55.7661 155.565 66.5323 154.516 69.1532C160.968 76.2903 164.919 81.8548 164.919 92.9032C164.919 131.815 141.169 134.919 118.629 137.46C122.339 140.645 125.484 146.694 125.484 156.169C125.484 169.758 125.363 186.573 125.363 189.879C125.363 192.5 127.218 195.685 132.339 194.758C172.661 181.371 200 143.105 200 98.3871C200 42.4597 154.637 0 98.7097 0ZM39.1935 139.073C38.6694 139.476 38.7903 140.403 39.4758 141.169C40.121 141.815 41.0484 142.097 41.5726 141.573C42.0968 141.169 41.9758 140.242 41.2903 139.476C40.6452 138.831 39.7177 138.548 39.1935 139.073ZM34.8387 135.806C34.5565 136.331 34.9597 136.976 35.7661 137.379C36.4113 137.782 37.2177 137.661 37.5 137.097C37.7823 136.573 37.379 135.927 36.5726 135.524C35.7661 135.282 35.121 135.403 34.8387 135.806ZM47.9032 150.161C47.2581 150.685 47.5 151.895 48.4274 152.661C49.3548 153.589 50.5242 153.71 51.0484 153.065C51.5726 152.54 51.3306 151.331 50.5242 150.565C49.6371 149.637 48.4274 149.516 47.9032 150.161ZM43.3065 144.234C42.6613 144.637 42.6613 145.685 43.3065 146.613C43.9516 147.54 45.0403 147.944 45.5645 147.54C46.2097 147.016 46.2097 145.968 45.5645 145.04C45 144.113 43.9516 143.71 43.3065 144.234Z" fill="white"/>
</svg>
