<svg width="200" height="200" viewBox="0 0 200 200" fill="none" xmlns="http://www.w3.org/2000/svg">
<path d="M100 200C155.228 200 200 155.228 200 100C200 44.7715 155.228 0 100 0C44.7715 0 0 44.7715 0 100C0 155.228 44.7715 200 100 200Z" fill="white"/>
<path d="M159.749 108.048V149.276H135.846V110.811C135.846 101.153 132.395 94.5576 123.741 94.5576C117.136 94.5576 113.213 98.9981 111.48 103.298C110.851 104.834 110.689 106.968 110.689 109.123V149.274H86.7839C86.7839 149.274 87.1048 84.1277 86.7839 77.3841H110.69V87.5716C110.642 87.6519 110.574 87.7303 110.532 87.8069H110.69V87.5716C113.867 82.6838 119.532 75.696 132.233 75.696C147.959 75.696 159.749 85.9709 159.749 108.048ZM61.7777 42.7305C53.6009 42.7305 48.2513 48.0979 48.2513 55.1498C48.2513 62.052 53.4458 67.5745 61.4639 67.5745H61.619C69.9562 67.5745 75.14 62.052 75.14 55.1498C74.9814 48.0979 69.9562 42.7305 61.7777 42.7305ZM49.6721 149.276H73.5678V77.3841H49.6721V149.276Z" fill="#182C52"/>
</svg>
