<svg width="200" height="153" viewBox="0 0 200 153" fill="none" xmlns="http://www.w3.org/2000/svg">
<path d="M0 142.8V0H26.9438V51.0348H39.7229V0H66.6667V142.8H39.7229V78.0532H26.9438V142.8H0Z" fill="url(#paint0_linear_108_23)"/>
<path d="M87.1434 143C83.3829 143 80.3889 142.332 78.1615 140.996C75.963 139.633 74.3866 137.577 73.4319 134.825C72.4773 132.074 72 128.602 72 124.41V73H80.982V124.213C80.982 126.702 81.0832 128.838 81.2857 130.62C81.4882 132.401 82.0234 133.764 82.8911 134.707C83.759 135.651 85.1764 136.122 87.1434 136.122C89.1394 136.122 90.557 135.651 91.3958 134.707C92.2347 133.764 92.7409 132.414 92.9144 130.659C93.1169 128.877 93.2182 126.741 93.2182 124.253V73H102.157V124.41C102.157 128.602 101.694 132.074 100.768 134.825C99.8425 137.577 98.2805 139.633 96.082 140.996C93.9125 142.332 90.933 143 87.1434 143ZM114.003 142.175V73H136.827V79.7603H122.985V103.421H136.088V110.181H122.985V135.414H137V142.175H114.003Z" fill="url(#paint1_linear_108_23)"/>
<path d="M72.9166 0V70.125H81.901V6.81328H96.0068V0H72.9166ZM99.0451 0L110.634 70.125H121.441L134.071 0H125.608L123.438 13.3875H109.592L107.595 0H99.0451ZM110.59 20.0813H122.309L116.276 57.1359H116.146L110.59 20.0813Z" fill="url(#paint2_linear_108_23)"/>
<path d="M144.444 0V142.8H174.623C180.941 142.8 185.937 141.041 189.616 137.526C193.336 134.01 195.997 129.007 197.599 122.516C199.199 116.025 200 108.29 200 99.311C200 90.6564 199.329 83.1106 197.987 76.6739C196.646 70.2911 194.245 65.3418 190.783 61.8259C187.365 58.31 182.498 56.552 176.181 56.552H166.901V0H144.444ZM166.901 82.1912H168.199C172.439 82.1912 175.035 83.6787 175.987 86.6536C176.938 89.6287 177.414 94.01 177.414 99.7977C177.414 105.207 176.938 109.372 175.987 112.293C175.078 115.268 172.893 116.755 169.432 116.755H166.901V82.1912Z" fill="url(#paint3_linear_108_23)"/>
<defs>
<linearGradient id="paint0_linear_108_23" x1="55.3075" y1="-37.2145" x2="-48.9672" y2="-5.45726" gradientUnits="userSpaceOnUse">
<stop stop-color="#192B53"/>
<stop offset="1" stop-color="#B31451"/>
</linearGradient>
<linearGradient id="paint1_linear_108_23" x1="126.836" y1="58.087" x2="47.326" y2="109.221" gradientUnits="userSpaceOnUse">
<stop stop-color="#192B53"/>
<stop offset="1" stop-color="#B31451"/>
</linearGradient>
<linearGradient id="paint2_linear_108_23" x1="127.16" y1="85.2428" x2="47.0096" y2="34.3818" gradientUnits="userSpaceOnUse">
<stop stop-color="#192B53"/>
<stop offset="1" stop-color="#B31451"/>
</linearGradient>
<linearGradient id="paint3_linear_108_23" x1="191.072" y1="180.015" x2="100.95" y2="156.876" gradientUnits="userSpaceOnUse">
<stop stop-color="#192B53"/>
<stop offset="1" stop-color="#B31451"/>
</linearGradient>
</defs>
</svg>
