<svg width="202" height="143" viewBox="0 0 202 143" fill="none" xmlns="http://www.w3.org/2000/svg">
<path d="M146 0V142.8H176.179C182.496 142.8 187.493 141.041 191.171 137.526C194.892 134.01 197.553 129.007 199.154 122.516C200.755 116.025 201.556 108.29 201.556 99.311C201.556 90.6564 200.884 83.1106 199.543 76.6739C198.202 70.2911 195.8 65.3418 192.339 61.8259C188.921 58.31 184.054 56.552 177.737 56.552H168.456V0H146ZM168.456 82.1912H169.754C173.994 82.1912 176.591 83.6787 177.542 86.6536C178.494 89.6287 178.97 94.01 178.97 99.7977C178.97 105.207 178.494 109.372 177.542 112.293C176.634 115.268 174.448 116.755 170.987 116.755H168.456V82.1912Z" fill="url(#paint0_linear_111_41)"/>
<path d="M74 0V70.125H82.9843V6.81328H97.0902V0H74ZM100.128 0L111.717 70.125H122.524L135.154 0H126.691L124.521 13.3875H110.675L108.679 0H100.128ZM111.674 20.0813H123.392L117.359 57.1359H117.229L111.674 20.0813Z" fill="url(#paint1_linear_111_41)"/>
<path d="M89.1434 143C85.3829 143 82.3889 142.332 80.1615 140.996C77.963 139.633 76.3866 137.577 75.4319 134.825C74.4773 132.074 74 128.602 74 124.41V73H82.982V124.213C82.982 126.702 83.0832 128.838 83.2857 130.62C83.4882 132.401 84.0234 133.764 84.8911 134.707C85.759 135.651 87.1764 136.122 89.1434 136.122C91.1394 136.122 92.557 135.651 93.3958 134.707C94.2347 133.764 94.7409 132.414 94.9144 130.659C95.1169 128.877 95.2182 126.741 95.2182 124.253V73H104.157V124.41C104.157 128.602 103.694 132.074 102.768 134.825C101.843 137.577 100.281 139.633 98.082 140.996C95.9125 142.332 92.933 143 89.1434 143ZM116.003 142.175V73H138.827V79.7603H124.985V103.421H138.088V110.181H124.985V135.414H139V142.175H116.003Z" fill="url(#paint2_linear_111_41)"/>
<path d="M0 142.8V0H26.9438V51.0348H39.7229V0H66.6667V142.8H39.7229V78.0532H26.9438V142.8H0Z" fill="url(#paint3_linear_111_41)"/>
<defs>
<linearGradient id="paint0_linear_111_41" x1="192.628" y1="180.015" x2="102.506" y2="156.876" gradientUnits="userSpaceOnUse">
<stop stop-color="#192B53"/>
<stop offset="1" stop-color="#B31451"/>
</linearGradient>
<linearGradient id="paint1_linear_111_41" x1="128.243" y1="85.2428" x2="48.093" y2="34.3818" gradientUnits="userSpaceOnUse">
<stop stop-color="#192B53"/>
<stop offset="1" stop-color="#B31451"/>
</linearGradient>
<linearGradient id="paint2_linear_111_41" x1="128.836" y1="58.087" x2="49.326" y2="109.221" gradientUnits="userSpaceOnUse">
<stop stop-color="#192B53"/>
<stop offset="1" stop-color="#B31451"/>
</linearGradient>
<linearGradient id="paint3_linear_111_41" x1="55.3075" y1="-37.2145" x2="-48.9672" y2="-5.45726" gradientUnits="userSpaceOnUse">
<stop stop-color="#192B53"/>
<stop offset="1" stop-color="#B31451"/>
</linearGradient>
</defs>
</svg>
