<svg width="213" height="213" viewBox="0 0 213 213" fill="none" xmlns="http://www.w3.org/2000/svg">
<path d="M112.289 15.15C112.289 15.0107 112.289 14.9411 112.29 14.8822C112.354 6.69004 118.979 0.064805 127.172 0.000462635C127.231 0 127.3 0 127.439 0L212.289 0V84.85C212.289 84.9893 212.289 85.0589 212.289 85.1178C212.225 93.31 205.599 99.9352 197.407 99.9995C197.348 100 197.279 100 197.139 100H112.289V15.15Z" fill="#666FCF"/>
<path d="M0 127.15C0 127.011 0 126.941 0.000462635 126.882C0.064805 118.69 6.69004 112.065 14.8822 112C14.9411 112 15.0107 112 15.15 112H100V196.85C100 196.989 100 197.059 99.9995 197.118C99.9352 205.31 93.31 211.935 85.1178 212C85.0589 212 84.9893 212 84.85 212H0V127.15Z" fill="#D93C90"/>
<path d="M196.85 112.29C196.989 112.29 197.059 112.29 197.118 112.29C205.31 112.354 211.935 118.98 212 127.172C212 127.231 212 127.3 212 127.44V212.29H127.15C127.011 212.29 126.941 212.29 126.882 212.289C118.69 212.225 112.065 205.6 112 197.407C112 197.348 112 197.279 112 197.14V112.29H196.85Z" fill="#F1D43B"/>
<path d="M85.1394 0C85.2787 0 85.3483 0 85.4072 0.000462635C93.5994 0.064805 100.225 6.69004 100.289 14.8822C100.289 14.9411 100.289 15.0107 100.289 15.15V100H15.4394C15.3001 100 15.2305 100 15.1716 99.9995C6.97946 99.9352 0.354222 93.31 0.289879 85.1178C0.289417 85.0589 0.289417 84.9893 0.289417 84.85V0L85.1394 0Z" fill="#81D74C"/>
</svg>
