<svg width="18" height="15" viewBox="0 0 18 15" fill="none" xmlns="http://www.w3.org/2000/svg">
<path d="M0.457031 14V3.6875H2.50781V7.37305H3.48047V3.6875H5.53125V14H3.48047V9.32422H2.50781V14H0.457031Z" fill="url(#paint0_linear_104_16)"/>
<path d="M7.87109 14.082C7.53255 14.082 7.26302 14.0156 7.0625 13.8828C6.86458 13.7474 6.72266 13.543 6.63672 13.2695C6.55078 12.9961 6.50781 12.651 6.50781 12.2344V7.125H7.31641V12.2148C7.31641 12.4622 7.32552 12.6745 7.34375 12.8516C7.36198 13.0286 7.41016 13.1641 7.48828 13.2578C7.56641 13.3516 7.69401 13.3984 7.87109 13.3984C8.05078 13.3984 8.17839 13.3516 8.25391 13.2578C8.32943 13.1641 8.375 13.0299 8.39062 12.8555C8.40885 12.6784 8.41797 12.4661 8.41797 12.2188V7.125H9.22266V12.2344C9.22266 12.651 9.18099 12.9961 9.09766 13.2695C9.01432 13.543 8.8737 13.7474 8.67578 13.8828C8.48047 14.0156 8.21224 14.082 7.87109 14.082ZM10.2891 14V7.125H12.3438V7.79688H11.0977V10.1484H12.2773V10.8203H11.0977V13.3281H12.3594V14H10.2891Z" fill="url(#paint1_linear_104_16)"/>
<path d="M6.5625 0V6.875H7.37109V0.667969H8.64062V0H6.5625ZM8.91406 0L9.95703 6.875H10.9297L12.0664 0H11.3047L11.1094 1.3125H9.86328L9.68359 0H8.91406ZM9.95312 1.96875H11.0078L10.4648 5.60156H10.4531L9.95312 1.96875Z" fill="url(#paint2_linear_104_16)"/>
<path d="M12.457 0V10.3125H15.1816C15.752 10.3125 16.2031 10.1855 16.5352 9.93164C16.8711 9.67773 17.1113 9.31641 17.2559 8.84766C17.4004 8.37891 17.4727 7.82031 17.4727 7.17188C17.4727 6.54688 17.4121 6.00195 17.291 5.53711C17.1699 5.07617 16.9531 4.71875 16.6406 4.46484C16.332 4.21094 15.8926 4.08398 15.3223 4.08398H14.4844V0H12.457ZM14.4844 5.93555H14.6016C14.9844 5.93555 15.2188 6.04297 15.3047 6.25781C15.3906 6.47266 15.4336 6.78906 15.4336 7.20703C15.4336 7.59766 15.3906 7.89844 15.3047 8.10938C15.2227 8.32422 15.0254 8.43164 14.7129 8.43164H14.4844V5.93555Z" fill="url(#paint3_linear_104_16)"/>
<defs>
<linearGradient id="paint0_linear_104_16" x1="4.66667" y1="1" x2="-3.19605" y2="3.52384" gradientUnits="userSpaceOnUse">
<stop stop-color="#192B53"/>
<stop offset="1" stop-color="#B31451"/>
</linearGradient>
<linearGradient id="paint1_linear_104_16" x1="11.4444" y1="5.64286" x2="3.88977" y2="10.0437" gradientUnits="userSpaceOnUse">
<stop stop-color="#192B53"/>
<stop offset="1" stop-color="#B31451"/>
</linearGradient>
<linearGradient id="paint2_linear_104_16" x1="11.4444" y1="8.35714" x2="3.88977" y2="3.9563" gradientUnits="userSpaceOnUse">
<stop stop-color="#192B53"/>
<stop offset="1" stop-color="#B31451"/>
</linearGradient>
<linearGradient id="paint3_linear_104_16" x1="16.6667" y1="13" x2="8.80395" y2="10.4762" gradientUnits="userSpaceOnUse">
<stop stop-color="#192B53"/>
<stop offset="1" stop-color="#B31451"/>
</linearGradient>
</defs>
</svg>
