<svg width="24" height="12" viewBox="0 0 24 12" fill="none" xmlns="http://www.w3.org/2000/svg">
<path d="M0.457031 11V0.6875H2.50781V4.37305H3.48047V0.6875H5.53125V11H3.48047V6.32422H2.50781V11H0.457031Z" fill="url(#paint0_linear_107_17)"/>
<path d="M7.63721 11.0718C7.34098 11.0718 7.10514 11.0137 6.92969 10.8975C6.75651 10.779 6.63232 10.6001 6.55713 10.3608C6.48193 10.1216 6.44434 9.81966 6.44434 9.45508V4.98438H7.15186V9.43799C7.15186 9.65446 7.15983 9.84017 7.17578 9.99512C7.19173 10.1501 7.23389 10.2686 7.30225 10.3506C7.37061 10.4326 7.48226 10.4736 7.63721 10.4736C7.79443 10.4736 7.90609 10.4326 7.97217 10.3506C8.03825 10.2686 8.07812 10.1512 8.0918 9.99854C8.10775 9.84359 8.11572 9.65788 8.11572 9.44141V4.98438H8.81982V9.45508C8.81982 9.81966 8.78337 10.1216 8.71045 10.3608C8.63753 10.6001 8.51449 10.779 8.34131 10.8975C8.17041 11.0137 7.93571 11.0718 7.63721 11.0718ZM9.75293 11V4.98438H11.5508V5.57227H10.4604V7.62988H11.4927V8.21777H10.4604V10.4121H11.5645V11H9.75293Z" fill="url(#paint1_linear_107_17)"/>
<path d="M17.1709 11L18.0835 4.98438H18.9346L19.9292 11H19.2627L19.0918 9.85156H18.0015L17.8442 11H17.1709ZM18.0801 9.27734H19.0029L18.5278 6.09863H18.5176L18.0801 9.27734ZM20.5957 11V4.98438H21.3032V10.4155H22.4141V11H20.5957Z" fill="url(#paint2_linear_107_17)"/>
<path d="M12.457 11V0.6875H15.1816C15.752 0.6875 16.2031 0.814453 16.5352 1.06836C16.8711 1.32227 17.1113 1.68359 17.2559 2.15234C17.4004 2.62109 17.4727 3.17969 17.4727 3.82812C17.4727 4.45312 17.4121 4.99805 17.291 5.46289C17.1699 5.92383 16.9531 6.28125 16.6406 6.53516C16.332 6.78906 15.8926 6.91602 15.3223 6.91602H14.4844V11H12.457ZM14.4844 5.06445H14.6016C14.9844 5.06445 15.2188 4.95703 15.3047 4.74219C15.3906 4.52734 15.4336 4.21094 15.4336 3.79297C15.4336 3.40234 15.3906 3.10156 15.3047 2.89062C15.2227 2.67578 15.0254 2.56836 14.7129 2.56836H14.4844V5.06445Z" fill="url(#paint3_linear_107_17)"/>
<defs>
<linearGradient id="paint0_linear_107_17" x1="3.88889" y1="1.71429" x2="-2.44958" y2="4.08795" gradientUnits="userSpaceOnUse">
<stop stop-color="#192B53"/>
<stop offset="1" stop-color="#B31451"/>
</linearGradient>
<linearGradient id="paint1_linear_107_17" x1="11.4444" y1="3.57143" x2="4.36614" y2="8.21019" gradientUnits="userSpaceOnUse">
<stop stop-color="#192B53"/>
<stop offset="1" stop-color="#B31451"/>
</linearGradient>
<linearGradient id="paint2_linear_107_17" x1="22.4444" y1="3.57143" x2="15.3661" y2="8.21019" gradientUnits="userSpaceOnUse">
<stop stop-color="#192B53"/>
<stop offset="1" stop-color="#B31451"/>
</linearGradient>
<linearGradient id="paint3_linear_107_17" x1="16.6667" y1="1.71429" x2="9.45099" y2="4.95688" gradientUnits="userSpaceOnUse">
<stop stop-color="#192B53"/>
<stop offset="1" stop-color="#B31451"/>
</linearGradient>
</defs>
</svg>
