<svg width="200" height="200" viewBox="0 0 200 200" fill="none" xmlns="http://www.w3.org/2000/svg">
<path d="M100 200C155.228 200 200 155.228 200 100C200 44.7715 155.228 0 100 0C44.7715 0 0 44.7715 0 100C0 155.228 44.7715 200 100 200Z" fill="white"/>
<path fill-rule="evenodd" clip-rule="evenodd" d="M100 153.333C129.455 153.333 153.333 129.455 153.333 100C153.333 70.5448 129.455 46.6667 100 46.6667C70.5448 46.6667 46.6667 70.5448 46.6667 100C46.6667 129.455 70.5448 153.333 100 153.333ZM100 160C133.137 160 160 133.137 160 100C160 66.8629 133.137 40 100 40C66.8629 40 40 66.8629 40 100C40 133.137 66.8629 160 100 160Z" fill="#182C52"/>
<path fill-rule="evenodd" clip-rule="evenodd" d="M112.764 139.719C117.13 129.896 120 115.859 120 100C120 84.141 117.13 70.1038 112.764 60.2812C110.577 55.3614 108.147 51.7928 105.784 49.5444C103.456 47.3287 101.513 46.6667 99.9999 46.6667C98.4872 46.6667 96.5442 47.3287 94.216 49.5444C91.8533 51.7928 89.4224 55.3614 87.2358 60.2812C82.8702 70.1038 79.9999 84.141 79.9999 100C79.9999 115.859 82.8702 129.896 87.2358 139.719C89.4224 144.639 91.8533 148.207 94.216 150.456C96.5442 152.671 98.4872 153.333 99.9999 153.333C101.513 153.333 103.456 152.671 105.784 150.456C108.147 148.207 110.577 144.639 112.764 139.719ZM99.9999 160C114.728 160 126.667 133.137 126.667 100C126.667 66.8629 114.728 40 99.9999 40C85.2723 40 73.3333 66.8629 73.3333 100C73.3333 133.137 85.2723 160 99.9999 160Z" fill="#182C52"/>
<path fill-rule="evenodd" clip-rule="evenodd" d="M43.8934 78.1527C44.9146 76.6209 46.9842 76.207 48.5159 77.2282L46.6669 80.0017C48.5159 77.2282 48.515 77.2275 48.5141 77.2269L48.5127 77.226L48.5112 77.225C48.5109 77.2248 48.5117 77.2253 48.5138 77.2267L48.5404 77.2441L48.6797 77.3331C48.8105 77.4157 49.017 77.5438 49.2974 77.7109C49.8585 78.0451 50.7152 78.5352 51.8547 79.1297C54.1341 80.319 57.5413 81.9242 61.9728 83.5357C70.8353 86.7584 83.7821 90.0017 100 90.0017C116.218 90.0017 129.165 86.7584 138.028 83.5357C142.459 81.9242 145.867 80.319 148.146 79.1297C149.285 78.5352 150.142 78.0451 150.703 77.7109C150.984 77.5438 151.19 77.4157 151.321 77.3331L151.46 77.2441L151.485 77.2282L151.486 77.2269C153.018 76.2073 155.086 76.6215 156.107 78.1527C157.128 79.6844 156.714 81.754 155.183 82.7752L153.468 80.2026C155.183 82.7752 155.181 82.7759 155.18 82.7767L155.178 82.7785L155.171 82.7831L155.151 82.796L155.09 82.8357L154.881 82.9697C154.702 83.0824 154.447 83.2408 154.115 83.4382C153.452 83.8332 152.486 84.3848 151.23 85.0403C148.717 86.351 145.041 88.0791 140.306 89.801C130.835 93.2449 117.115 96.6683 100 96.6683C82.8851 96.6683 69.1653 93.2449 59.6945 89.801C54.9593 88.0791 51.2832 86.351 48.7709 85.0403C47.5145 84.3848 46.5483 83.8332 45.8854 83.4382C45.5539 83.2408 45.2981 83.0824 45.1197 82.9697L44.9102 82.8357L44.8494 82.796L44.83 82.7831L44.823 82.7785L44.8203 82.7767C44.8191 82.7759 44.8179 82.7752 46.6669 80.0017L44.8179 82.7752C43.2862 81.754 42.8723 79.6844 43.8934 78.1527Z" fill="#182C52"/>
<path fill-rule="evenodd" clip-rule="evenodd" d="M43.8934 111.483C44.9146 109.951 46.9842 109.537 48.5159 110.558L46.6669 113.332C48.5159 110.558 48.5159 110.558 48.5159 110.558V110.558L48.5404 110.574L48.6797 110.663C48.8105 110.746 49.017 110.874 49.2974 111.041C49.8585 111.375 50.7152 111.865 51.8547 112.46C54.1341 113.649 57.5413 115.254 61.9728 116.866C70.8353 120.088 83.7821 123.332 100 123.332C116.218 123.332 129.165 120.088 138.028 116.866C142.459 115.254 145.867 113.649 148.146 112.46C149.285 111.865 150.142 111.375 150.703 111.041C150.984 110.874 151.19 110.746 151.321 110.663L151.46 110.574L151.485 110.558C153.016 109.539 155.086 109.952 156.107 111.483C157.128 113.014 156.714 115.084 155.183 116.105L153.468 113.533C155.183 116.105 155.183 116.105 155.183 116.105L155.171 116.113L155.151 116.126L155.09 116.166L154.881 116.3C154.702 116.412 154.447 116.571 154.115 116.768C153.452 117.163 152.486 117.715 151.23 118.37C148.717 119.681 145.041 121.409 140.306 123.131C130.835 126.575 117.115 129.998 100 129.998C82.8851 129.998 69.1653 126.575 59.6945 123.131C54.9593 121.409 51.2832 119.681 48.7709 118.37C47.5145 117.715 46.5483 117.163 45.8854 116.768C45.5539 116.571 45.2981 116.412 45.1197 116.3L44.9103 116.166L44.8494 116.126L44.83 116.113L44.823 116.109C44.823 116.109 44.8179 116.105 46.6669 113.332L44.823 116.109C43.2913 115.087 42.8723 113.014 43.8934 111.483Z" fill="#182C52"/>
</svg>
